<?xml version="1.0" encoding="utf-8"?><svg xmlns="http://www.w3.org/2000/svg" xmlns:xlink="http://www.w3.org/1999/xlink" width="1366" height="657" preserveAspectRatio="xMidYMid" viewBox="0 0 1366 657" style="z-index:1;margin-right:-2px;display:block;background-repeat-y:initial;background-repeat-x:initial;background-color:rgb(141, 68, 118);animation-play-state:paused" ><g transform="" style="animation-play-state:paused" ><linearGradient id="lg-0.4545967175126895" x1="0" x2="1" y1="0" y2="0" style="animation-play-state:paused" ><stop stop-color="#ffffff" offset="0" style="animation-play-state:paused" ></stop>

  
<stop stop-color="#ffffff" offset="1" style="animation-play-state:paused" ></stop></linearGradient>
<path fill="url(#lg-0.4545967175126895)" opacity="0.38" d="M 0 0 L 0 643.18 Q 136.6 630.579 273.2 608.923 T 546.4 628.774 T 819.6 539.319 T 1092.8 521.979 T 1366 508.297 L 1366 0 Z" style="opacity:0.38;animation-play-state:paused" ></path>
<path fill="url(#lg-0.4545967175126895)" opacity="0.38" d="M 0 0 L 0 641.863 Q 136.6 637.098 273.2 616.812 T 546.4 587.525 T 819.6 558.927 T 1092.8 559.513 T 1366 500.61 L 1366 0 Z" style="opacity:0.38;animation-play-state:paused" ></path>
<path fill="url(#lg-0.4545967175126895)" opacity="0.38" d="M 0 0 L 0 635.742 Q 136.6 709 273.2 662.381 T 546.4 592.615 T 819.6 604.799 T 1092.8 526.535 T 1366 522.808 L 1366 0 Z" style="opacity:0.38;animation-play-state:paused" ></path>
<path fill="url(#lg-0.4545967175126895)" opacity="0.38" d="M 0 0 L 0 645.983 Q 136.6 664.176 273.2 630.951 T 546.4 612.971 T 819.6 610.397 T 1092.8 559.741 T 1366 536.807 L 1366 0 Z" style="opacity:0.38;animation-play-state:paused" ></path>
<path fill="url(#lg-0.4545967175126895)" opacity="0.38" d="M 0 0 L 0 645.921 Q 136.6 626.464 273.2 609.013 T 546.4 620.523 T 819.6 577.153 T 1092.8 541.237 T 1366 511.092 L 1366 0 Z" style="opacity:0.38;animation-play-state:paused" ></path>
<path fill="url(#lg-0.4545967175126895)" opacity="0.38" d="M 0 0 L 0 632.919 Q 136.6 670.67 273.2 641.983 T 546.4 607.538 T 819.6 593.558 T 1092.8 567.163 T 1366 491.757 L 1366 0 Z" style="opacity:0.38;animation-play-state:paused" ></path></g></svg>