<?xml version="1.0" encoding="utf-8"?><svg xmlns="http://www.w3.org/2000/svg" xmlns:xlink="http://www.w3.org/1999/xlink" width="1366" height="657" preserveAspectRatio="xMidYMid" viewBox="0 0 1366 657" style="z-index:1;margin-right:-2px;display:block;background-repeat-y:initial;background-repeat-x:initial;background-color:rgb(57, 54, 226);animation-play-state:paused" ><g transform="" style="animation-play-state:paused" ><linearGradient id="lg-0.693220177681729" x1="0" x2="1" y1="0" y2="0" style="animation-play-state:paused" ><stop stop-color="#ffffff" offset="0" style="animation-play-state:paused" ></stop>

  
<stop stop-color="#ffffff" offset="1" style="animation-play-state:paused" ></stop></linearGradient>
<path fill="url(#lg-0.693220177681729)" opacity="0.4" d="M 0 0 L 0 622.712 Q 136.6 677.927 273.2 663.038 T 546.4 599.174 T 819.6 580.901 T 1092.8 573.627 T 1366 489.97 L 1366 0 Z" style="opacity:0.4;animation-play-state:paused" ></path>
<path fill="url(#lg-0.693220177681729)" opacity="0.4" d="M 0 0 L 0 650.904 Q 136.6 684.968 273.2 657.924 T 546.4 599.974 T 819.6 573.478 T 1092.8 566.556 T 1366 508.956 L 1366 0 Z" style="opacity:0.4;animation-play-state:paused" ></path>
<path fill="url(#lg-0.693220177681729)" opacity="0.4" d="M 0 0 L 0 637.349 Q 136.6 627.188 273.2 599.04 T 546.4 622.681 T 819.6 611.558 T 1092.8 525.908 T 1366 508.976 L 1366 0 Z" style="opacity:0.4;animation-play-state:paused" ></path>
<path fill="url(#lg-0.693220177681729)" opacity="0.4" d="M 0 0 L 0 655.863 Q 136.6 647.88 273.2 617.174 T 546.4 586.977 T 819.6 588.495 T 1092.8 545.688 T 1366 515.653 L 1366 0 Z" style="opacity:0.4;animation-play-state:paused" ></path>
<path fill="url(#lg-0.693220177681729)" opacity="0.4" d="M 0 0 L 0 669.952 Q 136.6 646.176 273.2 625.638 T 546.4 603.971 T 819.6 569.29 T 1092.8 539.712 T 1366 479.396 L 1366 0 Z" style="opacity:0.4;animation-play-state:paused" ></path>
<path fill="url(#lg-0.693220177681729)" opacity="0.4" d="M 0 0 L 0 668.924 Q 136.6 635.872 273.2 607.434 T 546.4 614.736 T 819.6 567.334 T 1092.8 571.984 T 1366 507.367 L 1366 0 Z" style="opacity:0.4;animation-play-state:paused" ></path></g></svg>